#Comment line ignore any data following # character 
#Hierarchical Translation and Rotation (.htr) file 
[Header]	
#Header keywords are followed by a single value 
FileType HTR		#Single word string
DataType HTRS		#Translation followed by rotation and scale data
FileVersion 1		#integer
NumSegments 64		#integer
NumFrames 3		#integer
DataFrameRate 30		#integer, data frame rate in this file
EulerRotationOrder ZYX
CalibrationUnits mm
RotationUnits Degrees
GlobalAxisofGravity Y
BoneLengthAxis Y
ScaleFactor 1.00
[SegmentNames&Hierarchy]
#CHILD	PARENT
Pinger_Root GLOBAL
Pelvis Pinger_Root
L_Hip Pelvis
R_Hip Pelvis
Rear_Leg01 Pelvis
Spine1 Pelvis
L_Leg01 L_Hip
L_Leg02 L_Leg01
L_Leg03 L_Leg02
L_Foot L_Leg03
L_Toe1_01 L_Foot
L_Toe2_01 L_Foot
L_Toe3_01 L_Foot
planeAlignerLeft L_Foot
L_Toe1_02 L_Toe1_01
L_Toe1_03 L_Toe1_02
L_Toe2_02 L_Toe2_01
L_Toe2_03 L_Toe2_02
L_Toe3_02 L_Toe3_01
L_Toe3_03 L_Toe3_02
planeLockWeightLeft planeAlignerLeft
R_Leg01 R_Hip
R_Leg02 R_Leg01
R_Leg03 R_Leg02
R_Foot R_Leg03
planeAlignerRight R_Foot
R_Toe1_01 R_Foot
R_Toe2_01 R_Foot
R_Toe3_01 R_Foot
planeLockWeightRight planeAlignerRight
R_Toe1_02 R_Toe1_01
R_Toe1_03 R_Toe1_02
R_Toe2_02 R_Toe2_01
R_Toe2_03 R_Toe2_02
R_Toe3_02 R_Toe3_01
R_Toe3_03 R_Toe3_02
Rear_Leg02 Rear_Leg01
Rear_Leg03 Rear_Leg02
Rear_Leg04 Rear_Leg03
Rear_Foot Rear_Leg04
planeAlignerCenter Rear_Foot
Rear_Toe1_01 Rear_Foot
Rear_Toe2_01 Rear_Foot
Rear_Toe3_01 Rear_Foot
planeLockWeightCenter planeAlignerCenter
Rear_Toe1_02 Rear_Toe1_01
Rear_Toe1_03 Rear_Toe1_02
Rear_Toe2_02 Rear_Toe2_01
Rear_Toe2_03 Rear_Toe2_02
Rear_Toe3_02 Rear_Toe3_01
Rear_Toe3_03 Rear_Toe3_02
Back_Bone Spine1
Head Spine1
Motor_Bone Back_Bone
Ping_Mechanism Back_Bone
BN_LookIK Head
bottomMouth Head
L_Mouth01 Head
L_mouthFront Head
mouthGun Head
R_Mouth01 Head
R_mouthFront Head
TopMouth Head
weapon_bone Head
[BasePosition]
#SegmentName Tx, Ty, Tz, Rx, Ry, Rz, BoneLength
Pinger_Root 0.000000 0.000000 0.000000 -90.000000 0.000000 0.000000 10.000000 
Pelvis 0.000000 0.000000 0.000000 0.000000 0.000000 0.000000 10.000000 
L_Hip 0.000000 0.000000 0.000000 0.000000 0.000000 0.000000 10.000000 
R_Hip 0.000000 0.000000 0.000000 0.000000 0.000000 0.000000 10.000000 
Rear_Leg01 0.000000 0.000000 0.000000 0.000000 0.000000 0.000000 10.000000 
Spine1 0.000000 0.000000 0.000000 0.000000 0.000000 0.000000 10.000000 
L_Leg01 0.000000 0.000000 0.000000 0.000000 0.000000 0.000000 10.000000 
L_Leg02 0.000000 0.000000 0.000000 0.000000 0.000000 0.000000 10.000000 
L_Leg03 0.000000 0.000000 0.000000 0.000000 0.000000 0.000000 10.000000 
L_Foot 0.000000 0.000000 0.000000 0.000000 0.000000 0.000000 10.000000 
L_Toe1_01 0.000000 0.000000 0.000000 0.000000 0.000000 0.000000 10.000000 
L_Toe2_01 0.000000 0.000000 0.000000 0.000000 0.000000 0.000000 10.000000 
L_Toe3_01 0.000000 0.000000 0.000000 0.000000 0.000000 0.000000 10.000000 
planeAlignerLeft 0.000000 0.000000 0.000000 0.000000 0.000000 0.000000 10.000000 
L_Toe1_02 0.000000 0.000000 0.000000 0.000000 0.000000 0.000000 10.000000 
L_Toe1_03 0.000000 0.000000 0.000000 0.000000 0.000000 0.000000 10.000000 
L_Toe2_02 0.000000 0.000000 0.000000 0.000000 0.000000 0.000000 10.000000 
L_Toe2_03 0.000000 0.000000 0.000000 0.000000 0.000000 0.000000 10.000000 
L_Toe3_02 0.000000 0.000000 0.000000 0.000000 0.000000 0.000000 10.000000 
L_Toe3_03 0.000000 0.000000 0.000000 0.000000 0.000000 0.000000 10.000000 
planeLockWeightLeft 0.000000 0.000000 0.000000 0.000000 0.000000 0.000000 10.000000 
R_Leg01 0.000000 0.000000 0.000000 0.000000 0.000000 0.000000 10.000000 
R_Leg02 0.000000 0.000000 0.000000 0.000000 0.000000 0.000000 10.000000 
R_Leg03 0.000000 0.000000 0.000000 0.000000 0.000000 0.000000 10.000000 
R_Foot 0.000000 0.000000 0.000000 0.000000 0.000000 0.000000 10.000000 
planeAlignerRight 0.000000 0.000000 0.000000 0.000000 0.000000 0.000000 10.000000 
R_Toe1_01 0.000000 0.000000 0.000000 0.000000 0.000000 0.000000 10.000000 
R_Toe2_01 0.000000 0.000000 0.000000 0.000000 0.000000 0.000000 10.000000 
R_Toe3_01 0.000000 0.000000 0.000000 0.000000 0.000000 0.000000 10.000000 
planeLockWeightRight 0.000000 0.000000 0.000000 0.000000 0.000000 0.000000 10.000000 
R_Toe1_02 0.000000 0.000000 0.000000 0.000000 0.000000 0.000000 10.000000 
R_Toe1_03 0.000000 0.000000 0.000000 0.000000 0.000000 0.000000 10.000000 
R_Toe2_02 0.000000 0.000000 0.000000 0.000000 0.000000 0.000000 10.000000 
R_Toe2_03 0.000000 0.000000 0.000000 0.000000 0.000000 0.000000 10.000000 
R_Toe3_02 0.000000 0.000000 0.000000 0.000000 0.000000 0.000000 10.000000 
R_Toe3_03 0.000000 0.000000 0.000000 0.000000 0.000000 0.000000 10.000000 
Rear_Leg02 0.000000 0.000000 0.000000 0.000000 0.000000 0.000000 10.000000 
Rear_Leg03 0.000000 0.000000 0.000000 0.000000 0.000000 0.000000 10.000000 
Rear_Leg04 0.000000 0.000000 0.000000 0.000000 0.000000 0.000000 10.000000 
Rear_Foot 0.000000 0.000000 0.000000 0.000000 0.000000 0.000000 10.000000 
planeAlignerCenter 0.000000 0.000000 0.000000 0.000000 0.000000 0.000000 10.000000 
Rear_Toe1_01 0.000000 0.000000 0.000000 0.000000 0.000000 0.000000 10.000000 
Rear_Toe2_01 0.000000 0.000000 0.000000 0.000000 0.000000 0.000000 10.000000 
Rear_Toe3_01 0.000000 0.000000 0.000000 0.000000 0.000000 0.000000 10.000000 
planeLockWeightCenter 0.000000 0.000000 0.000000 0.000000 0.000000 0.000000 10.000000 
Rear_Toe1_02 0.000000 0.000000 0.000000 0.000000 0.000000 0.000000 10.000000 
Rear_Toe1_03 0.000000 0.000000 0.000000 0.000000 0.000000 0.000000 10.000000 
Rear_Toe2_02 0.000000 0.000000 0.000000 0.000000 0.000000 0.000000 10.000000 
Rear_Toe2_03 0.000000 0.000000 0.000000 0.000000 0.000000 0.000000 10.000000 
Rear_Toe3_02 0.000000 0.000000 0.000000 0.000000 0.000000 0.000000 10.000000 
Rear_Toe3_03 0.000000 0.000000 0.000000 0.000000 0.000000 0.000000 10.000000 
Back_Bone 0.000000 0.000000 0.000000 0.000000 0.000000 0.000000 10.000000 
Head 0.000000 0.000000 0.000000 0.000000 0.000000 0.000000 10.000000 
Motor_Bone 0.000000 0.000000 0.000000 0.000000 0.000000 0.000000 10.000000 
Ping_Mechanism 0.000000 0.000000 0.000000 0.000000 0.000000 0.000000 10.000000 
BN_LookIK 0.000000 0.000000 0.000000 0.000000 0.000000 0.000000 10.000000 
bottomMouth 0.000000 0.000000 0.000000 0.000000 0.000000 0.000000 10.000000 
L_Mouth01 0.000000 0.000000 0.000000 0.000000 0.000000 0.000000 10.000000 
L_mouthFront 0.000000 0.000000 0.000000 0.000000 0.000000 0.000000 10.000000 
mouthGun 0.000000 0.000000 0.000000 0.000000 0.000000 0.000000 10.000000 
R_Mouth01 0.000000 0.000000 0.000000 0.000000 0.000000 0.000000 10.000000 
R_mouthFront 0.000000 0.000000 0.000000 0.000000 0.000000 0.000000 10.000000 
TopMouth 0.000000 0.000000 0.000000 0.000000 0.000000 0.000000 10.000000 
weapon_bone 0.000000 0.000000 0.000000 0.000000 0.000000 0.000000 10.000000 
#Beginning of Data. Separated by tabs
#Fr	Tx	Ty	Tz	Rx	Ry	Rz	SF
[Pinger_Root]
38 0.000000 0.000000 0.000000 -0.000075 -0.000000 -0.000020 0.000000
39 0.000000 0.000000 0.000000 -0.000075 -0.000000 -0.000020 0.000000
40 0.000000 0.000000 0.000000 -0.000075 -0.000000 -0.000020 0.000000
[Pelvis]
38 325.677856 812.130249 4760.958984 -28.573420 -57.702492 22.879343 4840.697754
39 384.568115 797.805664 4712.349121 -39.837395 -64.199768 33.565418 4794.853516
40 442.221832 783.244751 4641.062500 -59.880775 -70.119751 52.873425 4727.419434
[L_Hip]
38 5.766392 125.831482 872.656799 167.567688 -47.517143 112.117630 881.701050
39 5.766392 125.831482 872.656799 175.831161 -48.602581 101.024704 881.701050
40 5.766392 125.831482 872.656799 -174.421707 -48.496868 88.044708 881.701050
[R_Hip]
38 5.765438 125.836372 -872.654907 -40.703892 47.942577 30.766973 881.699829
39 5.765438 125.836372 -872.654907 -37.007370 50.507565 35.647858 881.699829
40 5.765438 125.836372 -872.654907 -32.086819 53.172756 41.901325 881.699829
[Rear_Leg01]
38 -192.298416 -925.602966 -0.001907 177.348267 25.864237 -174.862610 945.367432
39 -192.298416 -925.602966 -0.001907 174.594696 16.986887 -176.368042 945.367432
40 -192.298416 -925.602966 -0.001907 171.777832 6.908747 -177.050903 945.367432
[Spine1]
38 290.604584 5.007505 0.000477 -2.873300 -25.604118 9.429946 290.647736
39 290.604584 5.007505 0.000477 0.470307 -20.554197 7.516839 290.647736
40 290.604584 5.007505 0.000477 3.937037 -14.412021 5.921063 290.647736
[L_Leg01]
38 761.932007 -0.002384 -0.069261 -5.814931 -42.758209 -21.742176 761.932068
39 761.932007 -0.002384 -0.069261 -2.108889 -37.369530 -24.392511 761.932068
40 761.932007 -0.002384 -0.069261 1.830750 -31.333384 -25.585236 761.932068
[L_Leg02]
38 1441.140503 -0.000954 -0.000715 -1.214810 0.869060 -98.074234 1441.140503
39 1441.140503 -0.000954 -0.000715 -1.294381 0.783835 -103.587440 1441.140503
40 1441.140503 -0.000954 -0.000715 -1.299061 0.674027 -111.048950 1441.140503
[L_Leg03]
38 1686.963989 -0.000715 -0.000954 0.108637 -0.011985 80.452309 1686.963989
39 1686.963989 -0.000715 -0.000954 0.086599 -0.011838 87.151108 1686.963989
40 1686.963989 -0.000715 -0.000954 0.061451 -0.012374 93.502296 1686.963989
[L_Foot]
38 3041.570068 -30.715107 11.297464 8.348232 14.278312 65.756584 3041.746094
39 3041.570068 -30.715107 11.297464 7.519075 14.250718 63.800632 3041.746094
40 3041.570068 -30.715107 11.297464 6.402868 14.217466 62.286560 3041.746094
[L_Toe1_01]
38 -188.216690 -224.732346 -21.137953 94.342468 -5.491425 179.526367 293.899567
39 -188.216690 -224.732346 -21.137953 94.342484 -5.491335 179.526108 293.899567
40 -188.216690 -224.732346 -21.137953 94.342491 -5.491243 179.525864 293.899567
[L_Toe2_01]
38 200.746536 -219.926590 148.838394 -93.848244 -26.507332 -43.411591 332.896027
39 200.746536 -219.926590 148.838394 -93.848442 -26.507364 -43.411179 332.896027
40 200.746536 -219.926590 148.838394 -93.848648 -26.507402 -43.410786 332.896027
[L_Toe3_01]
38 188.832520 -219.859131 -191.078659 -98.826210 17.508028 -58.447746 347.140900
39 188.832520 -219.859131 -191.078659 -98.826607 17.507490 -58.449379 347.140900
40 188.832520 -219.859131 -191.078659 -98.827019 17.506950 -58.451012 347.140900
[planeAlignerLeft]
38 0.812531 -811.448792 -0.314951 0.000000 -90.000000 -90.001900 811.449280
39 0.812531 -811.448792 -0.314951 0.000000 -90.000000 -90.001900 811.449280
40 0.812531 -811.448792 -0.314951 0.000000 -90.000000 -90.001900 811.449280
[L_Toe1_02]
38 413.761139 0.000477 0.000000 0.001387 -25.567183 0.001387 413.761139
39 413.761139 0.000477 0.000000 0.001387 -25.569349 0.001387 413.761139
40 413.761139 0.000477 0.000000 0.001387 -25.571527 0.001387 413.761139
[L_Toe1_03]
38 464.317322 0.000358 -0.000089 0.004926 62.433941 0.004926 464.317322
39 464.317322 0.000358 -0.000089 0.004927 62.438721 0.004927 464.317322
40 464.317322 0.000358 -0.000089 0.004928 62.443497 0.004928 464.317322
[L_Toe2_02]
38 342.235809 -0.000477 0.000238 0.001183 -75.539024 0.001183 342.235809
39 342.235809 -0.000477 0.000238 0.001183 -75.537033 0.001183 342.235809
40 342.235809 -0.000477 0.000238 0.001183 -75.535103 0.001183 342.235809
[L_Toe2_03]
38 420.210846 -0.000715 0.000000 -179.987442 85.397377 -179.983948 420.210846
39 420.210846 -0.000715 0.000000 -179.987442 85.398956 -179.983932 420.210846
40 420.210846 -0.000715 0.000000 -179.987427 85.400612 -179.983932 420.210846
[L_Toe3_02]
38 329.270111 0.000954 0.000000 0.001176 -82.609619 0.001176 329.270111
39 329.270111 0.000954 0.000000 0.001176 -82.607132 0.001176 329.270111
40 329.270111 0.000954 0.000000 0.001176 -82.604446 0.001176 329.270111
[L_Toe3_03]
38 439.137451 -0.001907 0.000954 -179.998703 68.540932 -179.995132 439.137451
39 439.137451 -0.001907 0.000954 -179.998703 68.542274 -179.995132 439.137451
40 439.137451 -0.001907 0.000954 -179.998703 68.543648 -179.995132 439.137451
[planeLockWeightLeft]
38 -0.000954 0.000238 -0.000305 -0.011826 -0.004376 0.005620 0.001029
39 -0.000954 0.000238 -0.000305 -0.011826 -0.004376 0.005620 0.001029
40 -0.000954 0.000238 -0.000305 -0.011826 -0.004376 0.005620 0.001029
[R_Leg01]
38 761.455627 -0.001907 -0.000358 130.327469 -15.070027 75.954689 761.455688
39 761.455627 -0.001907 -0.000358 138.123352 -9.502502 86.857887 761.455688
40 761.455627 -0.001907 -0.000358 145.232117 -7.318813 98.650291 761.455688
[R_Leg02]
38 1441.140625 0.000000 -0.000238 19.959240 -0.203073 -107.956711 1441.140625
39 1441.140625 0.000000 -0.000238 17.257507 -0.699139 -85.240082 1441.140625
40 1441.140625 0.000000 -0.000238 12.918218 -1.560450 -63.424149 1441.140625
[R_Leg03]
38 1686.963989 0.000954 0.001431 0.049434 -0.025887 123.609306 1686.963989
39 1686.963989 0.000954 0.001431 0.040747 -0.018768 121.511459 1686.963989
40 1686.963989 0.000954 0.001431 0.021134 -0.012100 116.209267 1686.963989
[R_Foot]
38 3041.560059 -30.531288 -11.204481 0.415000 -13.692390 53.254974 3041.734131
39 3041.560059 -30.531288 -11.204481 -3.327512 -4.767757 48.650658 3041.734131
40 3041.560059 -30.531288 -11.204481 -7.045527 2.690994 45.278618 3041.734131
[planeAlignerRight]
38 -0.635147 -812.270569 -0.364304 0.000000 -89.960434 -90.005180 812.270874
39 -0.635147 -812.270569 -0.364304 0.000000 -89.960434 -90.005180 812.270874
40 -0.635147 -812.270569 -0.364304 0.000000 -89.960434 -90.005180 812.270874
[R_Toe1_01]
38 -188.383347 -224.864899 21.052242 76.820778 -0.739783 -173.989273 294.101532
39 -188.383347 -224.864899 21.052242 77.036583 -1.693334 -177.644989 294.101532
40 -188.383347 -224.864899 21.052242 77.238152 -2.484590 178.867645 294.101532
[R_Toe2_01]
38 200.637817 -220.002121 -148.787384 -91.203362 33.007114 -58.138920 332.857574
39 200.637817 -220.002121 -148.787384 -89.317429 33.426155 -54.499355 332.857574
40 200.637817 -220.002121 -148.787384 -87.735397 33.564095 -51.544575 332.857574
[R_Toe3_01]
38 188.606735 -220.092957 191.126343 -73.142975 -8.839409 -72.847183 347.192566
39 188.606735 -220.092957 191.126343 -72.863037 -10.249593 -69.677101 347.192566
40 188.606735 -220.092957 191.126343 -72.836884 -11.529168 -67.333466 347.192566
[planeLockWeightRight]
38 -0.000477 0.000000 0.000000 -0.011823 -0.004379 -0.000027 0.000477
39 -0.000477 0.000000 0.000000 -0.011823 -0.004379 -0.000027 0.000477
40 -0.000477 0.000000 0.000000 -0.011823 -0.004379 -0.000027 0.000477
[R_Toe1_02]
38 413.762085 0.000477 -0.000119 0.001396 -24.447716 0.001396 413.762085
39 413.762085 0.000477 -0.000119 0.001401 -23.794510 0.001401 413.762085
40 413.762085 0.000477 -0.000119 0.001410 -22.653425 0.001410 413.762085
[R_Toe1_03]
38 464.317810 0.000000 0.001088 0.007094 70.954056 0.007094 464.317810
39 464.317810 0.000000 0.001088 0.008768 74.616005 0.008768 464.317810
40 464.317810 0.000000 0.001088 0.013596 80.096428 0.013596 464.317810
[R_Toe2_02]
38 342.234741 -0.000954 0.000238 0.001195 -68.066559 0.001195 342.234741
39 342.234741 -0.000954 0.000238 0.001191 -70.241028 0.001191 342.234741
40 342.234741 -0.000954 0.000238 0.001187 -72.868446 0.001187 342.234741
[R_Toe2_03]
38 420.210846 0.000715 -0.000268 0.009194 75.332741 0.009194 420.210846
39 420.210846 0.000715 -0.000268 0.013623 80.115822 0.013623 420.210846
40 420.210846 0.000715 -0.000268 0.041899 86.789780 0.041899 420.210846
[R_Toe3_02]
38 329.270355 -0.000477 -0.000954 0.001183 -75.228668 0.001183 329.270355
39 329.270355 -0.000477 -0.000954 0.001181 -77.188965 0.001181 329.270355
40 329.270355 -0.000477 -0.000954 0.001179 -79.149933 0.001179 329.270355
[R_Toe3_03]
38 439.137939 0.000238 0.001431 -0.015250 85.120018 -0.011750 439.137939
39 439.137939 0.000238 0.001431 0.000000 89.791580 0.003499 439.137939
40 439.137939 0.000238 0.001431 -179.991394 83.631668 -179.987900 439.137939
[Rear_Leg02]
38 1162.777710 -0.029802 0.005960 -0.326692 -2.981511 -104.607513 1162.777710
39 1162.777710 -0.029802 0.005960 -0.226019 -2.986533 -106.572983 1162.777710
40 1162.777710 -0.029802 0.005960 -0.075653 -2.993335 -109.602303 1162.777710
[Rear_Leg03]
38 607.192505 -0.013351 -0.073195 0.006599 -0.001682 56.811928 607.192505
39 607.192505 -0.013351 -0.073195 0.006587 -0.001731 57.657017 607.192505
40 607.192505 -0.013351 -0.073195 0.006567 -0.001804 58.925442 607.192505
[Rear_Leg04]
38 995.874512 -0.020504 -0.011921 -0.036543 -0.015316 44.521622 995.874573
39 995.874512 -0.020504 -0.011921 -0.036734 -0.014851 45.973633 995.874573
40 995.874512 -0.020504 -0.011921 -0.039037 -0.018645 48.212543 995.874573
[Rear_Foot]
38 3096.176270 -0.067472 -0.041425 -156.205353 83.356064 33.824795 3096.176270
39 3096.176270 -0.067472 -0.041425 -158.821152 82.610420 30.986195 3096.176270
40 3096.176270 -0.067472 -0.041425 -160.933563 81.850983 28.650612 3096.176270
[planeAlignerCenter]
38 0.350077 0.966311 -838.790894 0.000009 0.000003 -179.999985 838.791565
39 0.350077 0.966311 -838.790894 0.000009 0.000003 -179.999985 838.791565
40 0.350077 0.966311 -838.790894 0.000009 0.000003 -179.999985 838.791565
[Rear_Toe1_01]
38 0.653352 83.966492 -371.173737 0.290240 41.136951 90.406410 380.553192
39 0.653352 83.966492 -371.173737 0.290262 41.136978 90.406418 380.553192
40 0.653352 83.966492 -371.173737 0.290281 41.136997 90.406410 380.553192
[Rear_Toe2_01]
38 178.200760 -294.826019 -362.060547 -7.260523 33.852634 -66.228813 499.765686
39 178.200760 -294.826019 -362.060547 -7.260539 33.852650 -66.228813 499.765686
40 178.200760 -294.826019 -362.060547 -7.260559 33.852676 -66.228828 499.765686
[Rear_Toe3_01]
38 -153.359680 -308.780914 -362.060852 3.322300 32.989574 -112.582558 499.952881
39 -153.359680 -308.780914 -362.060852 3.322298 32.989563 -112.582558 499.952881
40 -153.359680 -308.780914 -362.060852 3.322300 32.989574 -112.582558 499.952881
[planeLockWeightCenter]
38 -0.000062 0.000238 0.000000 -0.011814 -0.004373 -0.000015 0.000246
39 -0.000062 0.000238 0.000000 -0.011814 -0.004373 -0.000015 0.000246
40 -0.000062 0.000238 0.000000 -0.011814 -0.004373 -0.000015 0.000246
[Rear_Toe1_02]
38 379.707825 0.194073 0.000477 -0.000261 -31.944164 0.006945 379.707855
39 379.707825 0.194073 0.000477 -0.000261 -31.944153 0.006945 379.707855
40 379.707825 0.194073 0.000477 -0.000261 -31.944153 0.006945 379.707855
[Rear_Toe1_03]
38 500.129700 0.165701 0.000119 0.000045 53.309292 0.007413 500.129761
39 500.129700 0.165701 0.000119 0.000045 53.309299 0.007413 500.129761
40 500.129700 0.165701 0.000119 0.000045 53.309292 0.007413 500.129761
[Rear_Toe2_02]
38 340.494507 0.000238 -0.000954 0.001191 -70.483078 0.001191 340.494507
39 340.494507 0.000238 -0.000954 0.001191 -70.483063 0.001191 340.494507
40 340.494507 0.000238 -0.000954 0.001191 -70.483078 0.001191 340.494507
[Rear_Toe2_03]
38 433.103577 0.000000 0.000238 0.007025 70.764732 0.007025 433.103546
39 433.103577 0.000000 0.000238 0.007025 70.764679 0.007025 433.103546
40 433.103577 0.000000 0.000238 0.007025 70.764648 0.007025 433.103546
[Rear_Toe3_02]
38 340.494141 -0.000358 -0.000477 0.002682 -67.923447 -0.001011 340.494171
39 340.494141 -0.000358 -0.000477 0.002722 -67.923401 -0.001070 340.494171
40 340.494141 -0.000358 -0.000477 0.002762 -67.923424 -0.001130 340.494171
[Rear_Toe3_03]
38 433.103577 0.001431 -0.000238 0.005868 66.927361 0.005868 433.103546
39 433.103577 0.001431 -0.000238 0.005868 66.927330 0.005868 433.103546
40 433.103577 0.001431 -0.000238 0.005868 66.927299 0.005868 433.103546
[Back_Bone]
38 1312.175781 -701.934692 0.000954 1.470439 -0.060319 -78.578613 1488.125488
39 1312.175781 -701.934692 0.000954 1.463012 -0.107401 -76.227249 1488.125488
40 1312.175781 -701.934692 0.000954 1.456125 -0.167529 -74.229919 1488.125488
[Head]
38 1406.159424 809.709290 0.001431 -7.499225 3.185869 3.710581 1622.625488
39 1406.159424 809.709290 0.001431 -8.175371 3.342071 2.595621 1622.625488
40 1406.159424 809.709290 0.001431 -8.854539 3.485097 1.478723 1622.625488
[Motor_Bone]
38 1158.364380 -417.834747 0.000477 -0.000105 0.000046 -105.985291 1231.419434
39 1158.364380 -417.834747 0.000477 -0.000105 0.000046 -105.985291 1231.419434
40 1158.364380 -417.834747 0.000477 -0.000105 0.000046 -105.985291 1231.419434
[Ping_Mechanism]
38 1289.273926 -435.174988 144.166702 0.000103 -0.000053 82.120995 1368.352539
39 1288.963867 -450.010803 105.999771 0.000103 -0.000053 82.120995 1369.369873
40 1289.416382 -464.617737 61.224651 0.000103 -0.000053 82.120995 1371.937622
[BN_LookIK]
38 193.241119 1380.371704 -0.002861 0.000000 89.965736 -31.038179 1393.832153
39 193.241119 1380.371704 -0.002861 0.000000 89.965736 -31.038179 1393.832153
40 193.241119 1380.371704 -0.002861 0.000000 89.965736 -31.038179 1393.832153
[bottomMouth]
38 -435.092926 615.759399 -0.000954 -0.000022 0.000016 73.527184 753.966492
39 -435.092926 615.759399 -0.000954 -0.000022 0.000016 73.527184 753.966492
40 -435.092926 615.759399 -0.000954 -0.000022 0.000016 73.527184 753.966492
[L_Mouth01]
38 554.440979 7.658243 838.222046 150.204178 23.759130 109.605339 1005.027161
39 554.440979 7.658243 838.222046 150.204178 23.759130 109.605339 1005.027161
40 554.440979 7.658243 838.222046 150.204178 23.759130 109.605339 1005.027161
[L_mouthFront]
38 551.629089 934.514771 339.150421 0.000081 2.804060 79.119301 1136.941284
39 551.629089 934.514771 339.150421 0.000081 2.804060 79.119301 1136.941284
40 551.629089 934.514771 339.150421 0.000081 2.804060 79.119301 1136.941284
[mouthGun]
38 55.332661 1627.420898 0.000000 0.000023 0.000009 -11.038128 1628.361328
39 55.332661 1627.420898 0.000000 0.000023 0.000009 -11.038128 1628.361328
40 55.332661 1627.420898 0.000000 0.000023 0.000009 -11.038128 1628.361328
[R_Mouth01]
38 554.442383 7.659197 -838.223938 29.795891 -23.759109 109.605331 1005.029541
39 554.442383 7.659197 -838.223938 29.795891 -23.759109 109.605331 1005.029541
40 554.442383 7.659197 -838.223938 29.795891 -23.759109 109.605331 1005.029541
[R_mouthFront]
38 551.629089 934.514282 -339.151367 0.000029 -2.803930 79.119133 1136.941162
39 551.629089 934.514282 -339.151367 0.000029 -2.803930 79.119133 1136.941162
40 551.629089 934.514282 -339.151367 0.000029 -2.803930 79.119133 1136.941162
[TopMouth]
38 461.269867 -56.106091 -0.008583 -0.000059 -0.000268 92.025169 464.669525
39 461.269867 -56.106091 -0.008583 -0.000059 -0.000268 92.025169 464.669525
40 461.269867 -56.106091 -0.008583 -0.000059 -0.000268 92.025169 464.669525
[weapon_bone]
38 -987.239868 1448.372803 0.001431 0.000000 89.965736 -31.038221 1752.833740
39 -987.239868 1448.372803 0.001431 0.000000 89.965736 -31.038221 1752.833740
40 -987.239868 1448.372803 0.001431 0.000000 89.965736 -31.038221 1752.833740
